<svg xmlns="http://www.w3.org/2000/svg" viewBox="0 0 203.16 203.16"><defs><style>.cls-1,.cls-2{fill:#fff;}.cls-2{font-size:10.43px;font-family:MonotypeCorsiva, Monotype Corsiva;}</style></defs><title>Recurso 4</title><g id="Capa_2" data-name="Capa 2"><g id="Capa_1-2" data-name="Capa 1"><circle cx="101.58" cy="101.58" r="101.58"/><path class="cls-1" d="M54.48,50c-3.16.72-5.64,6.14-6.86,8.68a106.78,106.78,0,0,0-6,16.55c-1.62,5.62-3,11.3-4.35,17-1.67.06-3.34.16-5,.29.5-4.36,1.07-8.71,1.65-13,.5-3.74,1-7.47,1.5-11.21.11-.86,1.33-5.66.56-6.59-.93-1.15-2.43.57-3.16,1.36-3.9,4.2-6.39,10.1-8.89,15.18q-4,8.14-7.59,16.53c-2.94.56-5.86,1.19-8.75,1.86-1.31.31-3,4.07-2.34,3.92,3.13-.72,6.31-1.4,9.51-2-.28.67-.56,1.33-.83,2-1.23,3-2.46,6-3.46,9.13-.28.87-1.48,3.49-.63,4.31.68.67,3.68-2.93,2.77-3.81s3.26-9.65,4.3-12c4-.7,8-1.25,12-1.61q-.62,6.6-.95,13.12c-.22,4.2-1.72,14.2,3,16.88,3.84,2.19,6.63-3.76,7.55-6.56.71-2.15-2.53,1.07-2.85,2-1,3.18-3.92-1.76-4.12-2.28a13,13,0,0,1-.59-3.86,95,95,0,0,1,.27-12.28c.18-2.44.42-4.88.67-7.31.93-.06,1.86-.09,2.79-.12-.42,1-.53,1.72.38,1,.44-.35.88-.71,1.31-1.08h.07c-1.26,5.75-2.42,11.52-3.52,17.3-.25,1.29,2.81-1.72,3-2.83.79-4,1.65-10.06,5.85-12,7.29-3.29,1.49,9.6-1.4,4-.5-1-3.55,2.37-3,3.43,4,7.89,15.34-8.68,10.21-11.62-2.79-1.6-7.05,2.16-8.65,4-.33.39-.63.8-.92,1.21l.69-3.53c.72,0,1.44,0,2.15,0,1.26,0,3.33-3.9,2.34-3.93s-1.75,0-2.63,0A60.34,60.34,0,0,0,53.11,73.35a44.41,44.41,0,0,0,3.55-16.7C56.68,54.8,57.43,49.29,54.48,50ZM18.54,94.31c2.58-6.06,5.3-12.06,8.23-18,1.43-2.89,2.9-5.77,4.56-8.53A9.69,9.69,0,0,1,33,65.28c.56-.42.2,0,0,1.09-1.55,8.61-2.8,17.5-3.71,26.38C25.69,93.13,22.1,93.67,18.54,94.31ZM53.6,58.2a41,41,0,0,1-2,13.51A47.36,47.36,0,0,1,39.89,90.44c2.29-10.63,5.09-21.18,9.35-31,.59-1.35,2.78-6.35,4-5.19C53.88,54.83,53.59,57.43,53.6,58.2Z"/><path class="cls-1" d="M52.33,92.43c-1.13,4.6-2.49,9.33-2.95,14-.13,1.39,2.92-1.69,3-2.83a95.65,95.65,0,0,1,2.77-13.27C55.73,88.14,52.58,91.4,52.33,92.43Z"/><path class="cls-1" d="M106.63,99.65c-.69,4.91-1.85,11.07-6.44,13.85-2.7,1.64-7.08,2.64-9.69.34-4.88-4.32-3.66-14.43-2.93-20.1a53.78,53.78,0,0,1,8.65-22.68c1.89-2.8,5.09-6.56,8.86-4.34,1.78,1,2.66,3.32,2.93,5.29.09.7,3.18-2.08,3-3.43-.76-5.71-5.92-8.08-10.58-4.57-6.32,4.77-10.16,13.5-12.87,20.68-3.06,8.13-9.07,39.22,8.32,33.71,8.92-2.83,12.61-13.24,13.78-21.58C109.85,95.47,106.79,98.51,106.63,99.65Z"/><path class="cls-1" d="M110.71,94.42c-.27.38-1.37,1.92-.76,2.37s1.8-1.14,2-1.45a2.67,2.67,0,0,1,.91-.77,10.58,10.58,0,0,0-3,7.39c.08,1.87,1,4.09,3.22,4,2.06,0,3.82-2,5-3.41,2.18-2.62,5.21-7.67,2.79-11C118.13,87.78,112.62,91.69,110.71,94.42Zm7.37,5.46c-.89,1.81-3.18,3.22-4.61,1a4.51,4.51,0,0,1-.58-2.9c.23-1.69,1.35-2.42,2.82-3.12a3.81,3.81,0,0,0,1-.7,2.52,2.52,0,0,1,.57.28C119,95.69,118.93,98.14,118.08,99.88Z"/><ellipse class="cls-1" cx="55.44" cy="83.39" rx="2.19" ry="0.99" transform="translate(-44.59 87.84) rotate(-58.93)"/><path class="cls-1" d="M190.39,93.55a9.35,9.35,0,0,1,1.41-2.21c.79-.64,2.81-4.75,1.07-3.35a16,16,0,0,0-5.57,8.3c-.61,2.63.17,4.56,1.42,6.83,1,1.79,2.24,3.92-.41,4.58a5.13,5.13,0,0,1-3.95-.82.6.6,0,0,0-.19-.06c.1-.37.09-.67-.11-.81-4.29-2.83.6-10.34.43-14.28-.14-3.11-2.62-.94-4,.16s-3.07,2.48-4.62,3.71c-1.37,1.1-3.05,2.82-4.75,3.37s-2-1.09-1.69-3c.78-1.15,1.3-2.61.77-2.57l-.19,0c.17-.61.34-1.12.45-1.45.7-2.15-2.53,1.07-2.85,2.05,0,0,0,.09,0,.13A62.47,62.47,0,0,0,161.27,98c-2.12,1.26-4.26,2.54-6.36,3.88a25.83,25.83,0,0,0,2.5-6.55c.86-4-2-4.74-5.1-2.41a27.56,27.56,0,0,0-7.09,8.39c.4-3.55.81-7.1,1.19-10.65.11-.93-1.22.14-2.15,1.29a11.08,11.08,0,0,1-5.27-.35c-1.63-.53-3-1.79-4.8-1.62-2.37.22-4.37,2.53-5.74,4.28-.43.56-.84,1.14-1.23,1.73.27-1.44.55-2.89.82-4.34.24-1.28-2.82,1.71-3,2.83l-2.61,13.91c-.24,1.3,2.81-1.73,3-2.83.68-3.36,1.92-8.53,4.66-10.74,2.49-2,4.65.33,7.3.88a11.08,11.08,0,0,0,5.77-.15q-.75,6.78-1.52,13.55a91.85,91.85,0,0,0-2.76,8.92A118.2,118.2,0,0,0,136,133.22c-.34,2.76-1.55,6.82,2.18,7,1.26,0,2.48-2.37,2.69-3.38,1.7-8.18,2.26-16.72,3.21-25l.39-3.47c2.78-7.41,6.67-15.33,9.76-12.77,1.69,1.39-1.11,6.27-2.36,8.35-.48.34-1,.68-1.46,1-1.09.82-5.9,5-3.91,6.19,1.78,1.1,4.92-3.65,5.56-4.56l.19-.28c2.75-1.83,5.57-3.57,8.42-5.24,1.59-.93,3.8-2.66,5.83-3.38-.47,1.94-.67,4,.29,5,1.92,2,6.91-2.84,8.27-3.93,1.65-1.32,3.25-2.74,5-4,1.39-1,1.58-1,1.38.86-.42,3.72-4.34,11.38-.07,14.2a.55.55,0,0,0,.18.06c-.1.38-.09.68.12.81,4.13,2.57,8.86-.39,10.7-4.4a6.56,6.56,0,0,0-.22-6.06C191,98,189.51,96.17,190.39,93.55Zm-51.75,40.18c.05-1.11.21-2.23.35-3.34.29-2.39.67-4.77,1.11-7.13-.4,3.91-.84,7.82-1.45,11.69A8.07,8.07,0,0,1,138.64,133.73Z"/><text class="cls-2" transform="translate(52.88 136.6)">The hair is my art.</text></g></g></svg>