<svg xmlns="http://www.w3.org/2000/svg" viewBox="0 0 188.43 90.27"><title>Recurso 6</title><g id="Capa_2" data-name="Capa 2"><g id="Capa_1-2" data-name="Capa 1"><path d="M49.35.06c-3.16.72-5.64,6.13-6.86,8.67a105.75,105.75,0,0,0-6,16.55c-1.62,5.63-3.05,11.3-4.35,17-1.67.05-3.34.15-5,.29.5-4.36,1.07-8.71,1.65-13.06.5-3.73,1-7.47,1.5-11.21.11-.86,1.33-5.65.56-6.59-.94-1.14-2.43.58-3.16,1.36-3.9,4.21-6.39,10.1-8.89,15.18q-4,8.16-7.59,16.53c-3,.56-5.87,1.2-8.75,1.87-1.31.3-3,4.07-2.34,3.92,3.13-.73,6.31-1.4,9.51-2-.28.66-.56,1.32-.83,2-1.23,3-2.46,6-3.46,9.14-.28.86-1.48,3.49-.63,4.31.68.66,3.68-2.94,2.77-3.82s3.26-9.65,4.3-12c4-.7,8-1.25,12-1.61-.41,4.4-.73,8.79-1,13.12s-1.72,14.2,3,16.88c3.84,2.19,6.63-3.76,7.55-6.55.71-2.15-2.53,1.06-2.85,2-1.05,3.17-3.92-1.77-4.12-2.28a13,13,0,0,1-.59-3.87,93.06,93.06,0,0,1,.27-12.27c.18-2.44.41-4.88.67-7.32.93-.06,1.86-.09,2.79-.12-.42,1-.53,1.73.38,1l1.31-1.08h.07C30,51.89,28.88,57.67,27.78,63.44c-.25,1.29,2.81-1.71,3-2.83.79-4,1.65-10.06,5.85-12,7.29-3.28,1.49,9.61-1.4,4-.5-1-3.55,2.37-3,3.44,4,7.89,15.35-8.68,10.22-11.62-2.79-1.6-7,2.16-8.65,4-.33.39-.63.8-.92,1.21.22-1.17.46-2.35.69-3.53.72,0,1.44,0,2.15,0,1.26,0,3.33-3.9,2.34-3.92s-1.75,0-2.63,0A60.22,60.22,0,0,0,48,23.44a44.6,44.6,0,0,0,3.55-16.7C51.55,4.9,52.3-.62,49.35.06ZM13.41,44.4c2.58-6.06,5.3-12.06,8.23-18,1.43-2.88,2.9-5.76,4.56-8.53a9.44,9.44,0,0,1,1.66-2.54c.56-.41.2,0,0,1.09-1.55,8.62-2.8,17.51-3.72,26.38C20.56,43.22,17,43.76,13.41,44.4ZM48.47,8.29a41,41,0,0,1-2,13.51A47.29,47.29,0,0,1,34.76,40.53c2.29-10.62,5.09-21.18,9.35-31,.59-1.36,2.78-6.36,4-5.2C48.75,4.92,48.46,7.52,48.47,8.29Z"/><path d="M47.2,42.52c-1.13,4.6-2.49,9.33-3,14-.13,1.4,2.92-1.68,3-2.83a96,96,0,0,1,2.77-13.27C50.6,38.23,47.45,41.5,47.2,42.52Z"/><path d="M101.5,49.74c-.69,4.91-1.85,11.07-6.44,13.86-2.7,1.63-7.08,2.64-9.69.33-4.88-4.32-3.66-14.43-2.93-20.1a53.78,53.78,0,0,1,8.65-22.68c1.89-2.8,5.09-6.56,8.86-4.34,1.78,1.05,2.66,3.33,2.93,5.3.09.69,3.18-2.09,3-3.44C105.12,13,100,10.59,95.3,14.1,89,18.87,85.14,27.6,82.43,34.78,79.37,42.91,73.36,74,90.75,68.49c8.92-2.83,12.61-13.23,13.78-21.58C104.72,45.57,101.66,48.6,101.5,49.74Z"/><path d="M105.58,44.52c-.27.38-1.38,1.91-.76,2.36s1.8-1.14,2-1.45a2.66,2.66,0,0,1,.92-.76,10.53,10.53,0,0,0-3,7.38c.08,1.87,1,4.09,3.22,4,2.06-.05,3.82-2,5-3.42,2.18-2.61,5.21-7.67,2.79-11C113,37.88,107.49,41.79,105.58,44.52ZM113,50c-.89,1.81-3.19,3.22-4.61,1.05a4.51,4.51,0,0,1-.58-2.9c.23-1.69,1.35-2.42,2.82-3.13a3.59,3.59,0,0,0,.94-.7,2.84,2.84,0,0,1,.58.28C113.89,45.79,113.8,48.23,113,50Z"/><ellipse cx="50.31" cy="33.48" rx="2.19" ry="0.99" transform="translate(-4.33 59.3) rotate(-58.93)"/><path d="M185.26,43.64a9.35,9.35,0,0,1,1.41-2.21c.79-.63,2.81-4.74,1.07-3.34a15.89,15.89,0,0,0-5.57,8.29c-.62,2.64.17,4.56,1.41,6.83,1,1.8,2.25,3.92-.4,4.59a5.17,5.17,0,0,1-4-.82.33.33,0,0,0-.19-.06c.1-.38.09-.68-.11-.81-4.29-2.84.59-10.35.43-14.28-.14-3.12-2.62-.94-4,.15s-3.07,2.49-4.62,3.72c-1.37,1.09-3,2.81-4.76,3.36s-2-1.08-1.68-3c.78-1.15,1.3-2.62.77-2.58l-.19,0c.17-.61.34-1.13.45-1.45.7-2.16-2.53,1.06-2.85,2l-.05.12A64.4,64.4,0,0,0,156.14,48c-2.12,1.27-4.26,2.54-6.36,3.88a25.55,25.55,0,0,0,2.5-6.55c.86-4-2-4.74-5.1-2.4a27.52,27.52,0,0,0-7.09,8.38c.4-3.55.81-7.1,1.19-10.65.1-.92-1.22.14-2.15,1.29a11.08,11.08,0,0,1-5.27-.35c-1.63-.53-3-1.78-4.8-1.62-2.37.22-4.37,2.53-5.74,4.28q-.64.84-1.23,1.74c.27-1.45.54-2.9.82-4.34s-2.82,1.7-3,2.83l-2.61,13.91c-.24,1.3,2.81-1.74,3-2.84.68-3.36,1.91-8.52,4.66-10.74,2.49-2,4.65.33,7.3.89A11.25,11.25,0,0,0,138,45.6q-.74,6.76-1.51,13.54a92.72,92.72,0,0,0-2.76,8.92,116.36,116.36,0,0,0-2.92,15.26c-.34,2.75-1.55,6.81,2.18,7,1.26,0,2.48-2.37,2.69-3.37,1.7-8.18,2.25-16.72,3.21-25l.39-3.48c2.78-7.41,6.67-15.33,9.76-12.77C150.75,47,148,51.92,146.7,54c-.49.34-1,.68-1.46,1-1.09.82-5.9,5-3.91,6.2,1.78,1.1,4.92-3.65,5.56-4.57.06-.09.12-.19.19-.28,2.75-1.83,5.57-3.56,8.42-5.23,1.59-.94,3.8-2.66,5.83-3.38-.47,1.93-.67,4,.28,5,1.93,2,6.92-2.84,8.28-3.93,1.65-1.32,3.25-2.73,5-4,1.39-1,1.58-1,1.38.87-.43,3.72-4.34,11.37-.08,14.19a.49.49,0,0,0,.19.07c-.1.37-.09.67.12.8,4.13,2.58,8.86-.38,10.69-4.39a6.55,6.55,0,0,0-.21-6.07C185.82,48.09,184.38,46.26,185.26,43.64ZM133.51,83.83c.05-1.12.21-2.24.35-3.35.29-2.38.67-4.76,1.11-7.13-.4,3.91-.84,7.83-1.46,11.69A9.7,9.7,0,0,1,133.51,83.83Z"/></g></g></svg>