<svg xmlns="http://www.w3.org/2000/svg" viewBox="0 0 34.5 34.5"><defs><style>.cls-1{fill:none;stroke:#cda495;stroke-miterlimit:10;}</style></defs><title>calendarioiconos</title><g id="Capa_2" data-name="Capa 2"><g id="Capa_1-2" data-name="Capa 1"><path class="cls-1" d="M34,6.16v24.6c0,.35,0,.7,0,1a5.42,5.42,0,0,1-.06.91,1.4,1.4,0,0,1-1.34,1.05c-3.39,0-6.78.07-10.18.06q-9.45,0-18.9-.06A.88.88,0,0,1,3,33.6a4.52,4.52,0,0,1-.65-.73.52.52,0,0,1-.09-.28q0-.36,0-.72,0-7.87,0-15.74A.91.91,0,0,0,2,15.62,9.71,9.71,0,0,1,.66,12.26C.59,11.9.55,11.54.5,11.18V9.66l0-.26c0-.28,0-.57.1-.85a9.88,9.88,0,0,1,2.13-4.5A9.63,9.63,0,0,1,8.07.76C8.55.65,9.05.58,9.54.5h1.05c.11,0,.23,0,.35,0a8.22,8.22,0,0,1,2.35.4A10.49,10.49,0,0,1,16.9,3a.52.52,0,0,0,.34.12h3c0-.36,0-.7,0-1a.48.48,0,0,1,.53-.53c.39,0,.78,0,1.17,0s.42.14.44.45a8,8,0,0,1,0,.85c0,.19.05.26.25.25h4.05a3,3,0,0,1,0-.3,9.06,9.06,0,0,1,.07-.91c0-.25.15-.34.41-.35s.72,0,1.07,0,.66.16.64.65c0,.3,0,.6,0,.92h1.65c.72,0,1.43,0,2.14.06a1.44,1.44,0,0,1,1.2,1.22c0,.52,0,1,0,1.56A2,2,0,0,0,34,6.16ZM31.83,31.64V5.28H28.94v.44c0,.37,0,.75,0,1.12a.37.37,0,0,1-.4.39H27.22a.38.38,0,0,1-.41-.38c0-.22,0-.44,0-.66s0-.61,0-.91H22.46v.23c0,.4,0,.8,0,1.19a.5.5,0,0,1-.43.53,11.1,11.1,0,0,1-1.29,0,.44.44,0,0,1-.45-.46c0-.36,0-.72,0-1.08v-.4H18.83A9.73,9.73,0,0,1,19.47,14,9.45,9.45,0,0,1,13,19.83a9.82,9.82,0,0,1-8.63-1.62V31.64ZM10.42,2.73c-.42,0-.72,0-1,0a5.47,5.47,0,0,0-.9.16,7.62,7.62,0,1,0,4.08.1A6.22,6.22,0,0,0,10.42,2.73Z"/><path class="cls-1" d="M.5,11.18c.05.36.09.72.16,1.08A9.71,9.71,0,0,0,2,15.62a.91.91,0,0,1,.14.51q0,7.86,0,15.74,0,.36,0,.72a.52.52,0,0,0,.09.28A4.52,4.52,0,0,0,3,33.6a.88.88,0,0,0,.53.17q9.45,0,18.9.06c3.4,0,6.79,0,10.18-.06a1.42,1.42,0,0,0,1.35-1.05,6.75,6.75,0,0,0,.05-.91c0-.35,0-.7,0-1V34H.5Z"/><path class="cls-1" d="M31.83,31.64H4.35V18.21A9.82,9.82,0,0,0,13,19.83,9.45,9.45,0,0,0,19.47,14a9.73,9.73,0,0,0-.64-8.73h1.44v.4c0,.36,0,.72,0,1.07a.44.44,0,0,0,.45.47,11.1,11.1,0,0,0,1.29,0,.5.5,0,0,0,.43-.53c0-.39,0-.79,0-1.19V5.28h4.27c0,.3,0,.61,0,.91s0,.44,0,.66a.38.38,0,0,0,.41.38H28.5a.36.36,0,0,0,.4-.39c0-.37,0-.75,0-1.12V5.28h2.89ZM21.28,19.29v0c.47,0,.93,0,1.39,0s.5-.13.53-.47a9.45,9.45,0,0,0,0-1.19c0-.33-.13-.44-.47-.45-.72,0-1.43,0-2.15,0-.26,0-.51,0-.76,0s-.32.11-.32.28a14.61,14.61,0,0,0,0,1.48.48.48,0,0,0,.48.39Zm0,4.76h0c.23,0,.47,0,.7,0s.48,0,.71,0,.48-.13.51-.47a9.42,9.42,0,0,0,0-1.19c0-.34-.14-.44-.49-.45-.55,0-1.11,0-1.67,0-.4,0-.79,0-1.19,0-.21,0-.35.1-.36.3,0,.48,0,1,0,1.43a.48.48,0,0,0,.5.42Zm0,4.76h0l1.5-.06c.31,0,.42-.13.46-.44s0-.63,0-.94c0-.63-.12-.74-.74-.75H20.08l-.28,0a.3.3,0,0,0-.28.28c0,.5,0,1,0,1.48a.47.47,0,0,0,.47.39ZM14.83,21.9v0H13.36a.3.3,0,0,0-.19.05.72.72,0,0,0-.24.5c0,.37,0,.75,0,1.12s.1.45.44.46l2.75.06a.46.46,0,0,0,.5-.4c0-.49,0-1,0-1.49,0-.18-.13-.27-.32-.27Zm0,6.85v0h1.35a.38.38,0,0,0,.43-.32,4.15,4.15,0,0,0,0-1.57.28.28,0,0,0-.31-.23l-3,0a.24.24,0,0,0-.15,0,.67.67,0,0,0-.24.51c0,.37,0,.73,0,1.1s.12.47.49.47S14.4,28.75,14.87,28.75Zm12.87-9.44v0h1.43c.41,0,.55-.16.55-.56s0-.71,0-1.06-.11-.5-.46-.5c-1,0-1.93,0-2.89,0a.28.28,0,0,0-.31.28c0,.49,0,1,0,1.47a.3.3,0,0,0,.32.33ZM8.15,21.89H6.81c-.22,0-.32.08-.33.3,0,.47,0,.94,0,1.41,0,.24.12.34.37.39a1.63,1.63,0,0,0,.31,0l1.62,0c.3,0,.61,0,.91,0s.45-.17.46-.51,0-.73,0-1.1-.11-.49-.47-.5C9.16,21.88,8.66,21.89,8.15,21.89ZM27.85,24h0c.46,0,.92,0,1.38,0s.48-.16.49-.52,0-.72,0-1.07-.11-.52-.48-.52c-.91,0-1.83,0-2.75,0-.37,0-.45.1-.46.48v1.06c0,.43.13.57.56.59S27.43,24,27.85,24Zm0-11.66v0h-.24c-.39,0-.78,0-1.17,0s-.38.11-.38.34c0,.47,0,.94,0,1.41a.31.31,0,0,0,.32.33,2.33,2.33,0,0,0,.37,0l1.71,0a6.79,6.79,0,0,0,.78,0c.37,0,.49-.17.49-.54s0-.68,0-1-.11-.55-.53-.57Zm0,14.3h0c-.49,0-1,0-1.46,0a.29.29,0,0,0-.32.29c0,.4,0,.81,0,1.21s.14.62.6.63h2a5.53,5.53,0,0,0,.71,0c.3-.05.4-.17.41-.48s0-.78,0-1.17-.11-.43-.41-.45C28.82,26.64,28.33,26.66,27.84,26.66Zm-19.58,0v0c-.43,0-.85,0-1.28,0s-.52.1-.53.52v1c0,.47.14.62.61.63H9a5.48,5.48,0,0,0,.7,0c.3-.05.4-.17.41-.48s0-.77,0-1.15-.11-.45-.41-.47C9.24,26.64,8.75,26.66,8.26,26.66Z"/><path class="cls-1" d="M10.42,2.73A6.22,6.22,0,0,1,12.59,3a7.7,7.7,0,1,1-4.08-.1,5.47,5.47,0,0,1,.9-.16C9.7,2.71,10,2.73,10.42,2.73Zm-1,1v7.57h7.19c0-.58,0-1.16,0-1.74,0-.17,0-.22-.22-.22H11.49c-.18,0-.23-.06-.22-.23V4c0-.07,0-.15,0-.23Z"/><path class="cls-1" d="M21.28,19.29H20a.48.48,0,0,1-.48-.39,14.61,14.61,0,0,1,0-1.48c0-.17.14-.27.32-.28s.51,0,.76,0c.72,0,1.43,0,2.15,0,.34,0,.45.12.47.45a9.45,9.45,0,0,1,0,1.19c0,.34-.17.46-.52.47s-.93,0-1.4,0Z"/><path class="cls-1" d="M21.28,24.05H20a.48.48,0,0,1-.5-.42c0-.48,0-.95,0-1.43,0-.2.15-.29.36-.3.4,0,.8,0,1.19,0,.56,0,1.12,0,1.67,0,.35,0,.47.11.49.45a9.42,9.42,0,0,1,0,1.19c0,.34-.17.45-.51.47s-.47,0-.71,0-.47,0-.7,0Z"/><path class="cls-1" d="M21.24,28.81H20a.47.47,0,0,1-.47-.39c0-.49,0-1,0-1.48a.3.3,0,0,1,.28-.28l.28,0H22.5c.63,0,.73.12.74.75,0,.31,0,.63,0,.94s-.15.42-.46.44l-1.5.06Z"/><path class="cls-1" d="M14.83,21.9H16.3c.19,0,.31.09.32.27,0,.5.06,1,0,1.49a.46.46,0,0,1-.5.4L13.41,24c-.34,0-.43-.11-.44-.46s0-.74,0-1.12a.72.72,0,0,1,.24-.5.3.3,0,0,1,.19-.05h1.47Z"/><path class="cls-1" d="M14.87,28.75c-.47,0-.94,0-1.41,0s-.48-.1-.49-.47,0-.73,0-1.1a.72.72,0,0,1,.24-.51.24.24,0,0,1,.15,0l3,0a.28.28,0,0,1,.31.23,4.15,4.15,0,0,1,0,1.57c0,.23-.19.32-.43.32H14.87Z"/><path class="cls-1" d="M27.74,19.31l-1.37-.09a.31.31,0,0,1-.32-.33c0-.49,0-1,0-1.47a.28.28,0,0,1,.31-.28c1,0,1.93,0,2.89,0,.35,0,.46.15.46.5s0,.7,0,1.06-.14.55-.55.56H27.74Z"/><path class="cls-1" d="M8.15,21.89c.51,0,1,0,1.52,0,.36,0,.47.15.47.5s0,.74,0,1.1S10,24,9.68,24s-.61,0-.91,0L7.15,24a1.63,1.63,0,0,1-.31,0c-.25-.05-.37-.15-.37-.39,0-.47,0-.94,0-1.41,0-.22.11-.3.33-.3H8.15Z"/><path class="cls-1" d="M27.85,24c-.42,0-.84,0-1.26,0s-.55-.16-.56-.59V22.37c0-.38.09-.47.46-.48.92,0,1.84,0,2.75,0,.37,0,.48.14.48.52s0,.71,0,1.07-.13.51-.49.52-.92,0-1.38,0Z"/><path class="cls-1" d="M27.84,12.36h1.35c.42,0,.53.14.53.57s0,.68,0,1-.12.51-.49.54a6.79,6.79,0,0,1-.78,0l-1.71,0a2.46,2.46,0,0,1-.37,0,.31.31,0,0,1-.32-.33c0-.47,0-.94,0-1.41,0-.23.12-.33.38-.34s.78,0,1.17,0h.25Z"/><path class="cls-1" d="M27.84,26.66c.49,0,1,0,1.47,0,.3,0,.4.16.41.45s0,.78,0,1.17-.11.43-.41.48a5.53,5.53,0,0,1-.71,0c-.65,0-1.31,0-2,0-.46,0-.6-.16-.6-.63s0-.81,0-1.21a.29.29,0,0,1,.32-.29c.48,0,1,0,1.46,0Z"/><path class="cls-1" d="M8.26,26.66c.49,0,1,0,1.47,0,.3,0,.41.16.41.47s0,.76,0,1.15-.11.43-.41.48a5.48,5.48,0,0,1-.7,0h-2c-.47,0-.61-.16-.61-.63v-1c0-.42.1-.51.53-.52s.85,0,1.28,0Z"/><path class="cls-1" d="M9.38,3.75h1.88c0,.08,0,.16,0,.23V9.14c0,.17,0,.23.22.23h4.86c.18,0,.23.05.22.22,0,.58,0,1.16,0,1.74H9.38Z"/></g></g></svg>