<svg xmlns="http://www.w3.org/2000/svg" viewBox="0 0 55.47 55.23"><defs><style>.cls-1{fill:#D79D93;}</style></defs><title>facebook_iconiconos</title><g id="Capa_2" data-name="Capa 2"><g id="Capa_1-2" data-name="Capa 1"><path class="cls-1" d="M55.47,26.63v2.16c0,.09,0,.17,0,.26a27.63,27.63,0,0,1-12,21.49A27.36,27.36,0,0,1,33.12,54.9c-.65.13-1.31.22-2,.33V33.51h6.64c.33-2.6.66-5.16,1-7.75H31.13a1.62,1.62,0,0,1,0-.18c0-1.85,0-3.7,0-5.55A2.9,2.9,0,0,1,32,17.94a3.34,3.34,0,0,1,2.28-.86c1.49,0,3,0,4.47,0,.29,0,.35-.09.35-.37,0-2.08,0-4.17,0-6.25v-.32c-.45,0-.87-.1-1.29-.12l-3.5-.16a13.35,13.35,0,0,0-5.21.64,8.42,8.42,0,0,0-5,4.54,11.52,11.52,0,0,0-1,4.77c0,1.88,0,3.76,0,5.64v.36H16.43v7.74H23.1V55l-1.56-.31-.12,0A27.88,27.88,0,0,1,6,44.92a27.37,27.37,0,0,1-4.32-7.71A26.46,26.46,0,0,1,.12,30.13L0,28.85V26.63c0-.08,0-.16,0-.24.09-.9.14-1.8.26-2.69a26.58,26.58,0,0,1,2.18-7.45,27.45,27.45,0,0,1,3.77-6.06,28.18,28.18,0,0,1,6.13-5.56,27.55,27.55,0,0,1,7.45-3.49,26,26,0,0,1,5.46-1L26.63,0h2.15L29,0c.77.07,1.53.11,2.3.2a26.64,26.64,0,0,1,8,2.25A27.82,27.82,0,0,1,54,18.64a26.77,26.77,0,0,1,1.4,6.61l.12,1.38"/></g></g></svg>