<?xml version="1.0" encoding="utf-8"?>
<!-- Generator: Adobe Illustrator 26.0.1, SVG Export Plug-In . SVG Version: 6.00 Build 0)  -->
<svg version="1.1" id="Capa_1" xmlns="http://www.w3.org/2000/svg" xmlns:xlink="http://www.w3.org/1999/xlink" x="0px" y="0px"
	 viewBox="0 0 55.5 55.2" style="enable-background:new 0 0 55.5 55.2;" xml:space="preserve">
<style type="text/css">
	.st0{fill:#777777;}
</style>
<g id="Capa_2_00000128483456264108387700000004432086790103561374_">
	<g id="Capa_1-2">
		<path class="st0" d="M55.5,26.6v2.2c0,0.1,0,0.2,0,0.3c-0.4,8.6-4.9,16.6-12,21.5c-3.1,2.2-6.6,3.6-10.4,4.4
			c-0.7,0.1-1.3,0.2-2,0.3V33.5h6.6c0.3-2.6,0.7-5.2,1-7.8h-7.6c0-0.1,0-0.1,0-0.2c0-1.9,0-3.7,0-5.5c0-0.8,0.3-1.5,0.9-2.1
			c0.6-0.6,1.4-0.9,2.3-0.9c1.5,0,3,0,4.5,0c0.3,0,0.3-0.1,0.3-0.4c0-2.1,0-4.2,0-6.2v-0.3c-0.5,0-0.9-0.1-1.3-0.1l-3.5-0.2
			c-1.8-0.1-3.5,0.1-5.2,0.6c-2.2,0.7-4,2.4-5,4.5c-0.7,1.5-1,3.1-1,4.8c0,1.9,0,3.8,0,5.6v0.4h-6.7v7.7h6.7V55l-1.6-0.3h-0.1
			C15.3,53.3,9.9,49.8,6,44.9c-1.8-2.3-3.3-4.9-4.3-7.7c-0.8-2.3-1.4-4.7-1.6-7.1L0,28.9v-2.2c0-0.1,0-0.2,0-0.2
			c0.1-0.9,0.1-1.8,0.3-2.7c0.4-2.6,1.1-5.1,2.2-7.4c1-2.2,2.3-4.2,3.8-6.1C8,8,10,6.2,12.3,4.6c2.3-1.5,4.8-2.7,7.5-3.5
			c1.8-0.5,3.6-0.9,5.5-1L26.6,0h2.1H29c0.8,0.1,1.5,0.1,2.3,0.2c2.8,0.3,5.5,1.1,8,2.2c6.9,3.2,12.2,9,14.7,16.2
			c0.7,2.1,1.2,4.4,1.4,6.6L55.5,26.6"/>
	</g>
</g>
</svg>
