<svg xmlns="http://www.w3.org/2000/svg" viewBox="0 0 37 66.61"><title>favicon</title><g id="Capa_2" data-name="Capa 2"><g id="Capa_1-2" data-name="Capa 1"><path d="M27.07,66.61a5.22,5.22,0,0,1-3.75-2.5,11.5,11.5,0,0,1-1.54-4,23.25,23.25,0,0,1-.5-4.46c0-1.6.06-3.27.16-4.72s.22-3.21.36-4.93L22,44c.18-2.21.37-4.49.6-6.84-1.41.22-2.62.39-3.81.53-1.82.23-3.74.42-5.71.57C5.9,54.11,5.55,54.11,4.54,54.11A1,1,0,0,1,4.16,54a.72.72,0,0,1-.27-.15c-.66-.42-1.23-1.79,3.84-15.35-2,.07-3.61.09-4.71.09-1.31,0-2,0-2,0A1,1,0,0,1,0,37.79a1,1,0,0,1,.58-1.1c.08,0,1.95-.84,5-1.81,1.25-.38,2.57-.75,3.91-1.09,1.8-4.59,3.77-9.26,5.86-13.89,1.61-3.81,3.54-8.28,6-12.8.3-.56.62-1.13.94-1.69l.3-.5c.16-.27.34-.54.51-.8.3-.47.65-1,1.06-1.51A7.67,7.67,0,0,1,26.74.35,3.64,3.64,0,0,1,28.24,0a4.13,4.13,0,0,1,1.5.32A3,3,0,0,1,31,1.17a4,4,0,0,1,.76,1.23,9.92,9.92,0,0,1,.47,3.71c0,.62-.05,1.27-.09,1.92l-.08,1.1c-.06.69-.14,1.36-.22,2-1,7.79-2,14.46-2.88,20.35h1a32.77,32.77,0,0,1,3.28.15c2.28.27,3.79.71,3.79,1.94a.76.76,0,0,1,0,.15h0c-.12,1.11-1.17,1.75-8.75,2.54L25.93,51.41c-.23,1.49-.44,3-.53,4.32-.19,3,.09,5.24.82,6.71a2.2,2.2,0,0,0,1.27,1.22h.11a2,2,0,0,0,1.19-.51,10.16,10.16,0,0,0,2.07-2.34l.13-.18c.42-.64.63-1,.64-1a1,1,0,0,1,.87-.5,1.11,1.11,0,0,1,.43.09,1,1,0,0,1,.5,1.27s-.17.44-.56,1.26l-.14.26a11.94,11.94,0,0,1-2.17,3.15,4.6,4.6,0,0,1-3.26,1.47ZM25.43,12.09c-1.71,3.1-3.25,6.19-4.75,9.2l-.12.25c-1.75,3.85-3.41,7.55-4.95,11,.84-.14,1.66-.26,2.47-.36,1.7-.21,3.39-.35,5.05-.42C23.7,26.38,24.45,19.52,25.43,12.09Z"/></g></g></svg>