<svg xmlns="http://www.w3.org/2000/svg" viewBox="0 0 30.76 32.85"><defs><style>.cls-1{fill:none;stroke:#cda495;stroke-miterlimit:10;}</style></defs><title>focoiconos</title><g id="Capa_2" data-name="Capa 2"><g id="Capa_1-2" data-name="Capa 1"><path class="cls-1" d="M10.5,27.17c0,.72,0,1.43,0,2.15a3,3,0,0,0,3,3h3.56a3,3,0,0,0,2.46-1.26,4.63,4.63,0,0,0,.63-2.37c0-.17-.07-.35-.07-.53a8.51,8.51,0,0,1,.06-1.82,1.15,1.15,0,0,0,0-.37c0-.31-.08-.62-.07-.93a1.62,1.62,0,0,1,.74-1.34,10.14,10.14,0,0,0,1.31-1,9.14,9.14,0,0,0,2.59-8.91A9.64,9.64,0,0,0,5.8,17.25a9.29,9.29,0,0,0,4,6.5,1.52,1.52,0,0,1,.7,1.32ZM10.39,5.46a2.32,2.32,0,0,0-.13-.37C9.83,4.33,9.39,3.57,9,2.82a.71.71,0,0,0-1-.3.72.72,0,0,0-.24,1l.53.91c.26.46.51.91.78,1.36a.71.71,0,0,0,.83.34A.78.78,0,0,0,10.39,5.46Zm10,0a.79.79,0,0,0,.55.72.7.7,0,0,0,.82-.32c.47-.78.93-1.57,1.36-2.37a.86.86,0,0,0,0-.55.65.65,0,0,0-.62-.51.69.69,0,0,0-.7.37c-.45.77-.89,1.54-1.33,2.31A2.48,2.48,0,0,0,20.37,5.45ZM16.08,2.58c0-.42,0-.84,0-1.26A1,1,0,0,0,16,1a.72.72,0,0,0-.77-.47.74.74,0,0,0-.64.78q0,1.29,0,2.58a.76.76,0,0,0,.75.79.73.73,0,0,0,.71-.8C16.09,3.44,16.08,3,16.08,2.58Zm-10,7A.66.66,0,0,0,5.77,9L3.48,7.66A.73.73,0,0,0,2.73,8.9c.77.47,1.55.93,2.34,1.36A.71.71,0,0,0,6.08,9.59Zm19.33.76a2.72,2.72,0,0,0,.37-.13L26.2,10,28,9a.73.73,0,0,0,.29-1,.71.71,0,0,0-.94-.32c-.79.44-1.57.9-2.35,1.37a.7.7,0,0,0-.26.82A.81.81,0,0,0,25.41,10.35ZM2.24,14.64h-1a.74.74,0,0,0-.75.72.73.73,0,0,0,.72.74q1,0,2,0A.73.73,0,0,0,4,15.36a.71.71,0,0,0-.74-.71Zm26.3,0h-1a.73.73,0,0,0,0,1.46c.68,0,1.37,0,2.05,0a.73.73,0,1,0,0-1.46Z"/><path class="cls-1" d="M10.5,27.17v-2.1a1.54,1.54,0,0,0-.7-1.32,9.29,9.29,0,0,1-4-6.5,9.64,9.64,0,0,1,19-3.48,9.14,9.14,0,0,1-2.59,8.91,10.14,10.14,0,0,1-1.31,1,1.59,1.59,0,0,0-.74,1.34c0,.31.05.62.07.93a1.15,1.15,0,0,1,0,.37,8.51,8.51,0,0,0-.06,1.82c0,.18.1.36.07.53a4.63,4.63,0,0,1-.63,2.37,3,3,0,0,1-2.46,1.26H13.53a3,3,0,0,1-3-3C10.49,28.6,10.5,27.89,10.5,27.17ZM12,25.39h6.62a.13.13,0,0,0,0-.05,1.09,1.09,0,0,0,0-.18,3.08,3.08,0,0,1,1.45-2.69,7.54,7.54,0,0,0,.89-.69,7.7,7.7,0,0,0,2.4-7.43,8.18,8.18,0,0,0-16.1,3,7.8,7.8,0,0,0,3.41,5.29,2.73,2.73,0,0,1,1.17,1.7C11.94,24.65,12,25,12,25.39Zm6.62,3.92H12a1.52,1.52,0,0,0,1.45,1.57c1.24,0,2.49,0,3.74,0A1.51,1.51,0,0,0,18.62,29.31Zm0-2.42H12v.93h6.66Z"/><path class="cls-1" d="M10.39,5.46a.78.78,0,0,1-.56.71A.71.71,0,0,1,9,5.83c-.27-.45-.52-.9-.78-1.36l-.53-.91a.72.72,0,0,1,.24-1,.71.71,0,0,1,1,.3c.44.75.88,1.51,1.31,2.27A2,2,0,0,1,10.39,5.46Z"/><path class="cls-1" d="M20.37,5.45a2.48,2.48,0,0,1,.13-.35c.44-.77.88-1.54,1.33-2.31a.69.69,0,0,1,.7-.37.65.65,0,0,1,.62.51.86.86,0,0,1,0,.55c-.43.8-.89,1.59-1.36,2.37a.7.7,0,0,1-.82.32A.79.79,0,0,1,20.37,5.45Z"/><path class="cls-1" d="M16.08,2.58c0,.43,0,.86,0,1.28a.73.73,0,0,1-.71.8.76.76,0,0,1-.75-.79q0-1.29,0-2.58a.74.74,0,0,1,.64-.78A.72.72,0,0,1,16,1a1,1,0,0,1,0,.34C16.09,1.74,16.08,2.16,16.08,2.58Z"/><path class="cls-1" d="M6.08,9.59a.71.71,0,0,1-1,.67c-.8-.43-1.57-.89-2.34-1.36a.73.73,0,0,1,.75-1.24C4.25,8.09,5,8.54,5.77,9A.66.66,0,0,1,6.08,9.59Z"/><path class="cls-1" d="M25.41,10.35a.81.81,0,0,1-.7-.52A.7.7,0,0,1,25,9c.78-.47,1.56-.93,2.35-1.37a.71.71,0,0,1,.94.32A.73.73,0,0,1,28,9L26.2,10l-.42.24A2.72,2.72,0,0,1,25.41,10.35Z"/><path class="cls-1" d="M2.24,14.64h1a.73.73,0,1,1,0,1.46q-1,0-2,0a.73.73,0,1,1,0-1.46h1Z"/><path class="cls-1" d="M28.54,14.64h1a.73.73,0,1,1,0,1.46c-.68,0-1.37,0-2.05,0a.73.73,0,0,1,0-1.46h1Z"/><path class="cls-1" d="M12,25.39c-.05-.37-.06-.74-.14-1.1a2.69,2.69,0,0,0-1.17-1.7A7.8,7.8,0,0,1,7.28,17.3a8.18,8.18,0,0,1,16.1-3A7.7,7.7,0,0,1,21,21.78a6.8,6.8,0,0,1-.89.69,3.08,3.08,0,0,0-1.45,2.69,1.09,1.09,0,0,1,0,.18.13.13,0,0,1,0,.05Z"/><path class="cls-1" d="M18.62,29.31a1.51,1.51,0,0,1-1.45,1.57c-1.25,0-2.49,0-3.74,0A1.52,1.52,0,0,1,12,29.31Z"/><rect class="cls-1" x="11.97" y="26.89" width="6.65" height="0.93"/></g></g></svg>