<?xml version="1.0" encoding="utf-8"?>
<!-- Generator: Adobe Illustrator 26.0.1, SVG Export Plug-In . SVG Version: 6.00 Build 0)  -->
<svg version="1.1" id="Capa_1" xmlns="http://www.w3.org/2000/svg" xmlns:xlink="http://www.w3.org/1999/xlink" x="0px" y="0px"
	 viewBox="0 0 46 46" style="enable-background:new 0 0 46 46;" xml:space="preserve">
<style type="text/css">
	.st0{fill:#777777;}
</style>
<g id="Capa_2_00000100361225389535901840000008036147963044528277_">
	<g id="Capa_1-2">
		<path class="st0" d="M23,0h12.7c5-0.1,9.4,3.5,10.2,8.5C46,9,46,9.4,46,9.9c0,8.7,0,17.5,0,26.2c-0.1,5.4-4.5,9.8-9.9,9.9
			c-8.7,0-17.5,0-26.2,0c-5.4-0.1-9.8-4.5-9.9-9.9c0-8.7,0-17.5,0-26.3c0.1-5,3.9-9.1,8.8-9.8C9.3,0,9.8,0,10.3,0H23 M7.3,23
			c0,2.2,0,4.5,0,6.7c0,4.9,3.9,8.9,8.8,8.9c0.1,0,0.1,0,0.2,0h13.3c4.9,0.1,8.9-3.9,9-8.8c0-0.1,0-0.2,0-0.2V16.4
			c0.1-4.9-3.9-8.9-8.8-9c-0.1,0-0.1,0-0.2,0H16.4c-4.9,0-8.9,3.9-9,8.8c0,0,0,0,0,0.1C7.4,18.5,7.4,20.8,7.3,23"/>
		<path class="st0" d="M23,10.1c2.2,0,4.5,0,6.7,0c3.4,0,6.2,2.7,6.3,6.1c0,0,0,0.1,0,0.1v13.5c0,3.4-2.7,6.2-6.1,6.2c0,0,0,0,0,0
			c-4.5,0-9,0-13.5,0c-3.4,0-6.1-2.7-6.2-6.1c0-4.6,0-9.2,0-13.8c0-3.4,2.8-6.1,6.2-6.1C18.5,10,20.8,10,23,10.1 M31.1,23
			c0-4.4-3.5-8-8-8s-8,3.5-8,8c0,4.4,3.5,8,7.9,8C27.4,31,31,27.4,31.1,23 M31.3,16.4c1.1,0,1.9-0.9,1.9-2c0-1.1-0.9-1.9-1.9-1.9
			c-1.1,0-1.9,0.9-1.9,1.9C29.4,15.6,30.3,16.4,31.3,16.4C31.3,16.4,31.3,16.4,31.3,16.4"/>
	</g>
</g>
</svg>
