<svg xmlns="http://www.w3.org/2000/svg" viewBox="0 0 46.26 31.88"><defs><style>.cls-1{fill:none;stroke:#cda495;stroke-miterlimit:10;}</style></defs><title>mensajesiconos</title><g id="Capa_2" data-name="Capa 2"><g id="Capa_1-2" data-name="Capa 1"><path class="cls-1" d="M39.3,28.17H41a4.64,4.64,0,0,0,4.72-4.71q0-7.5,0-15A4.62,4.62,0,0,0,41,3.75H16.47a4.67,4.67,0,0,0-4.85,4.88q0,7.32,0,14.66a5.92,5.92,0,0,0,.13,1.26,4.65,4.65,0,0,0,4.63,3.62h16.5a2.55,2.55,0,0,1,.87.13l5.1,2.09c.77.32,1.53.65,2.31.94a1.92,1.92,0,0,0,.68,0,2.51,2.51,0,0,0-.24-.6c-.34-.42-.71-.8-1.07-1.2ZM34.15,3.08a4.18,4.18,0,0,0-.29-.51,4.64,4.64,0,0,0-4-2.07H5.38A4.6,4.6,0,0,0,.53,5.13c0,5.05,0,10.12,0,15.18A4.5,4.5,0,0,0,4.22,24.8a13.37,13.37,0,0,0,2.11.12L7,25c-.82.91-1.57,1.73-2.29,2.58a1.77,1.77,0,0,0-.21.6,2,2,0,0,0,.61,0c1.91-.76,3.81-1.55,5.71-2.33.18-.07.36-.16.46-.21A17.07,17.07,0,0,1,11,23.42c0-5,0-10,0-15a5.31,5.31,0,0,1,5.41-5.35H34.15Z"/><path class="cls-1" d="M39.3,28.17l1.23,1.39c.36.4.73.78,1.07,1.2a2.51,2.51,0,0,1,.24.6,2.19,2.19,0,0,1-.68,0c-.78-.29-1.54-.62-2.31-.94-1.7-.7-3.39-1.4-5.1-2.09a2.55,2.55,0,0,0-.87-.13H16.38a4.65,4.65,0,0,1-4.63-3.62,5.92,5.92,0,0,1-.13-1.26q0-7.34,0-14.66a4.67,4.67,0,0,1,4.85-4.88H41a4.62,4.62,0,0,1,4.71,4.71q0,7.5,0,15A4.64,4.64,0,0,1,41,28.17ZM28.72,13.4h7c1.14,0,2.29,0,3.44,0,.15,0,.29-.16.44-.24-.15-.1-.29-.22-.44-.31s-.13,0-.19,0H18.49c-.25,0-.66-.11-.64.31s.41.25.64.25Zm0,7c-3.39,0-6.78,0-10.18,0-.25,0-.7-.19-.69.29s.44.26.69.26H38.9c.25,0,.67.12.66-.3s-.41-.26-.66-.26C35.51,20.41,32.12,20.42,28.72,20.42Zm-3.35-3.8H18.53a1.46,1.46,0,0,0-.42,0c-.11,0-.19.17-.28.25a1.64,1.64,0,0,0,.3.29.72.72,0,0,0,.33,0H32.18a1.1,1.1,0,0,0,.41,0,.36.36,0,0,0,.21-.26c0-.09-.12-.21-.22-.24a1.18,1.18,0,0,0-.42,0Zm-3-7h3.9a1.18,1.18,0,0,0,.38,0c.1-.05.25-.17.25-.26s-.15-.2-.25-.27-.15,0-.23,0h-8c-.08,0-.18,0-.23,0a2,2,0,0,0-.29.29.93.93,0,0,0,.29.24.92.92,0,0,0,.37,0Z"/><path class="cls-1" d="M34.15,3.08H16.36A5.31,5.31,0,0,0,11,8.43c0,5,0,10,0,15a17.07,17.07,0,0,0,.27,2.15c-.1.05-.28.14-.46.21-1.9.78-3.8,1.57-5.71,2.33a2,2,0,0,1-.61,0,1.77,1.77,0,0,1,.21-.6C5.38,26.69,6.13,25.87,7,25l-.62,0a13.37,13.37,0,0,1-2.11-.12A4.5,4.5,0,0,1,.53,20.31c0-5.06,0-10.13,0-15.18A4.6,4.6,0,0,1,5.38.5H29.85a4.64,4.64,0,0,1,4,2.07A4.18,4.18,0,0,1,34.15,3.08Z"/><path class="cls-1" d="M28.72,13.4H18.49c-.23,0-.63.14-.64-.25s.39-.31.64-.31H39c.06,0,.14,0,.19,0s.29.21.44.31c-.15.09-.29.24-.44.24-1.15,0-2.3,0-3.44,0Z"/><path class="cls-1" d="M28.72,20.42c3.4,0,6.79,0,10.18,0,.25,0,.64-.12.65.26s-.4.3-.65.3H18.54c-.25,0-.68.15-.69-.26s.44-.29.69-.29C21.94,20.41,25.33,20.42,28.72,20.42Z"/><path class="cls-1" d="M25.37,16.62h6.79a1.18,1.18,0,0,1,.42,0c.1,0,.22.15.22.24a.36.36,0,0,1-.21.26,1.1,1.1,0,0,1-.41,0H18.46a.72.72,0,0,1-.33,0,1.37,1.37,0,0,1-.3-.29c.09-.08.17-.21.28-.25a1.46,1.46,0,0,1,.42,0Z"/><path class="cls-1" d="M22.35,9.61H18.49a.92.92,0,0,1-.37,0,.93.93,0,0,1-.29-.24,2,2,0,0,1,.29-.29c.05,0,.15,0,.23,0h8c.08,0,.17,0,.23,0s.24.18.25.27-.15.21-.25.26a1.18,1.18,0,0,1-.38,0Z"/></g></g></svg>