<?xml version="1.0" encoding="utf-8"?>
<!-- Generator: Adobe Illustrator 26.0.1, SVG Export Plug-In . SVG Version: 6.00 Build 0)  -->
<svg version="1.1" id="Capa_1" xmlns="http://www.w3.org/2000/svg" xmlns:xlink="http://www.w3.org/1999/xlink" x="0px" y="0px"
	 viewBox="0 0 42.3 42.6" style="enable-background:new 0 0 42.3 42.6;" xml:space="preserve">
<style type="text/css">
	.st0{fill:#777777;}
</style>
<g id="Capa_2_00000010296957448065508140000007438943133505597085_">
	<g id="Capa_1-2">
		<path class="st0" d="M30.8,25.1c-1-0.6-2-1.1-3-1.6c-0.7-0.4-1.6-0.2-2.1,0.5L24,25.7c-0.1,0.1-0.2,0.2-0.4,0.1
			c-2.2-0.9-4.2-2.3-5.9-4c-0.7-0.8-1.3-1.7-1.7-2.7c-0.1-0.2-0.1-0.4,0.1-0.5c0.3-0.3,0.6-0.7,0.9-1c0.6-0.5,0.9-1.4,0.6-2.2
			c-0.5-1.2-1-2.5-1.5-3.6c-0.3-0.9-1.4-1.4-2.3-1c0,0,0,0,0,0c-0.1,0-0.2,0.1-0.2,0.1c-0.4,0.2-0.7,0.4-1.1,0.7
			c-1,0.7-1.6,1.7-1.9,2.9c-0.2,1-0.1,1.9,0.3,2.8c1.7,5.7,5.9,10.2,11.5,12.2c1.5,0.6,3,0.9,4.6,1h0c0.5,0,0.9-0.1,1.4-0.2
			c1.7-0.1,3-1.4,3.2-3.1C31.9,26.5,31.5,25.5,30.8,25.1z"/>
		<path class="st0" d="M42,17.9C41.4,13.8,39.6,10,36.8,7c-5-5.7-12.6-8.2-20-6.5c-5.9,1.1-11,4.8-13.9,10
			c-2.3,3.8-3.2,8.2-2.8,12.6c0.3,3,1.2,5.9,2.7,8.5c0.1,0.2,0.1,0.3,0.1,0.5c-0.7,2.9-1.4,5.6-2.1,8.4c-0.2,0.7-0.3,1.3-0.5,2l0,0
			l0.2,0l9.9-2.9c0.2-0.1,0.5-0.1,0.7,0.1c4.3,2.3,9.2,3,14,2.1c4.7-0.9,8.9-3.3,12-7C41.2,30.1,43,23.9,42,17.9z M34.7,32.4
			c-2.6,3.2-6.4,5.4-10.5,6c-4.3,0.7-8.7-0.2-12.4-2.6c-0.3-0.2-0.6-0.2-0.9-0.1c-1.7,0.5-3.5,1-5.2,1.5l-0.3,0.1l0,0l0,0l0,0
			c0.4-1.7,0.8-3.4,1.3-5c0.2-0.7,0.1-1.4-0.3-2c-1.9-3-2.8-6.6-2.5-10.2C4.3,12.1,10.2,5.5,18,4c6.1-1.3,12.4,0.8,16.4,5.5
			c2.4,2.6,3.9,5.8,4.3,9.2C39.4,23.7,38,28.7,34.7,32.4z"/>
	</g>
</g>
</svg>
