<svg xmlns="http://www.w3.org/2000/svg" viewBox="0 0 42.29 42.56"><defs><style>.cls-1{fill:#ffffff;}</style></defs><title>Recurso 1whatsapp</title><g id="Capa_2" data-name="Capa 2"><g id="Capa_1-2" data-name="Capa 1"><path class="cls-1" d="M30.75,25.13c-1-.58-2-1.11-3-1.61a1.66,1.66,0,0,0-2.13.45L24,25.72c-.11.12-.2.23-.42.14a17.15,17.15,0,0,1-5.9-4A8.76,8.76,0,0,1,16,19.15a.37.37,0,0,1,.08-.47c.31-.33.58-.7.91-1a2,2,0,0,0,.58-2.23c-.5-1.2-.95-2.48-1.5-3.64a1.75,1.75,0,0,0-2.27-1,1.08,1.08,0,0,0-.24.12,6.33,6.33,0,0,0-1.06.71,5,5,0,0,0-1.91,2.88,5.17,5.17,0,0,0,.3,2.83,18.41,18.41,0,0,0,11.5,12.18,13.46,13.46,0,0,0,4.61,1l-.05,0a9.74,9.74,0,0,0,1.38-.16,3.57,3.57,0,0,0,3.25-3.09A1.74,1.74,0,0,0,30.75,25.13Z"/><path class="cls-1" d="M42,17.89A19.82,19.82,0,0,0,36.81,7a20.64,20.64,0,0,0-20-6.52,20.24,20.24,0,0,0-13.94,10A20.54,20.54,0,0,0,.12,23.11a20.9,20.9,0,0,0,2.7,8.49.82.82,0,0,1,.1.53C2.23,35,1.54,37.72.84,40.52c-.16.66-.32,1.33-.5,2v0l.25-.05,9.94-2.86a.86.86,0,0,1,.7.06,20.75,20.75,0,0,0,14,2.08,20.49,20.49,0,0,0,12-7A20.69,20.69,0,0,0,42,17.89ZM34.73,32.43a16.93,16.93,0,0,1-10.53,6,17.14,17.14,0,0,1-12.39-2.59,1,1,0,0,0-.88-.14c-1.74.53-3.48,1-5.22,1.52l-.28.06v0l0,0,0,0c.42-1.7.81-3.37,1.27-5a2.32,2.32,0,0,0-.29-2,16.81,16.81,0,0,1-2.53-10.2A17.38,17.38,0,0,1,18,4,17,17,0,0,1,34.43,9.5a16.52,16.52,0,0,1,4.3,9.25A17.11,17.11,0,0,1,34.73,32.43Z"/></g></g></svg>